<svg width="54" height="7" viewBox="0 0 54 7" fill="none" xmlns="http://www.w3.org/2000/svg">
<g clip-path="url(#clip0_5787_16909)">
<path d="M51.7678 2.19338C51.8956 2.04892 52.057 1.94385 52.2654 1.86505C52.4604 1.79938 52.6688 1.75342 52.8907 1.75342H54.0002L53.6909 3.19807H52.6688C52.568 3.19807 52.4671 3.22434 52.3797 3.26374C52.2856 3.31627 52.2116 3.37537 52.1376 3.4476C52.0704 3.53297 52.0099 3.6249 51.9763 3.7234C51.9359 3.83503 51.9157 3.95323 51.9157 4.06486V6.7309H50.1406V1.75998H51.6602L51.7678 2.19995V2.19338Z" fill="white"/>
<path d="M46.7851 2.84979C46.3951 2.84979 46.0791 2.94172 45.8303 3.12559C45.5748 3.30945 45.4201 3.57212 45.3529 3.90045L47.8408 3.35542C47.7197 3.21095 47.5785 3.09276 47.4037 2.99426C47.2221 2.90232 47.0204 2.84979 46.7784 2.84979H46.7851ZM45.6017 5.15467C45.8572 5.47643 46.227 5.63403 46.7179 5.63403C47.0608 5.63403 47.3499 5.5815 47.5987 5.47643C47.8408 5.37793 48.0694 5.21377 48.2913 4.97737L49.441 5.8179C49.1183 6.18563 48.7418 6.47456 48.3316 6.68469C47.908 6.88825 47.4171 6.99332 46.8591 6.99332C46.3951 6.99332 45.9715 6.92765 45.595 6.80945C45.2117 6.67812 44.8755 6.50082 44.6065 6.26442C44.3241 6.02803 44.109 5.74566 43.961 5.39763C43.8064 5.06274 43.7324 4.68187 43.7324 4.25504C43.7324 3.82821 43.8064 3.46705 43.9745 3.11902C44.1291 2.78412 44.3443 2.49519 44.6133 2.25223C44.8889 2.01583 45.1982 1.83197 45.5681 1.69407C45.9244 1.5693 46.3211 1.49707 46.738 1.49707C47.1549 1.49707 47.5583 1.56274 47.9147 1.68094C48.2711 1.81227 48.5804 1.98957 48.8359 2.22596C49.0914 2.46236 49.2864 2.75786 49.441 3.09276C49.5755 3.43422 49.6562 3.82821 49.6562 4.25504L45.6151 5.1481L45.6017 5.15467Z" fill="white"/>
<path d="M40.0879 5.47013C40.4443 5.47013 40.7267 5.3585 40.9486 5.13524C41.1638 4.91854 41.2713 4.62304 41.2713 4.26844C41.2713 3.91385 41.1638 3.60522 40.9486 3.37539C40.7267 3.15869 40.4443 3.04705 40.0879 3.04705C39.7316 3.04705 39.4424 3.15869 39.2273 3.37539C39.0054 3.60522 38.9045 3.89415 38.9045 4.26844C38.9045 4.64274 39.0054 4.91854 39.2273 5.13524C39.4424 5.36507 39.7316 5.47013 40.0879 5.47013ZM41.4394 0.0395508H43.2078V6.74405H41.6882L41.5537 6.33692C41.3117 6.53392 41.0427 6.67182 40.7536 6.77689C40.4443 6.86882 40.1417 6.90822 39.8257 6.90822C39.4223 6.90165 39.0592 6.82942 38.7364 6.69809C38.4069 6.56675 38.1245 6.37632 37.8825 6.13993C37.6404 5.90353 37.4589 5.62773 37.3244 5.30597C37.1899 4.9842 37.1294 4.64274 37.1294 4.25531C37.1294 3.86788 37.1966 3.50672 37.3446 3.17182C37.479 2.85006 37.6673 2.56769 37.9161 2.3313C38.1582 2.0949 38.4338 1.91103 38.77 1.77313C39.0928 1.64837 39.4424 1.57614 39.819 1.57614C40.1283 1.57614 40.4174 1.61554 40.6864 1.68777C40.9486 1.76657 41.2041 1.88477 41.4462 2.02923V0.0395508H41.4394Z" fill="white"/>
<path d="M34.7424 2.19338C34.8702 2.04892 35.0316 1.94385 35.24 1.86505C35.435 1.79938 35.6434 1.75342 35.8653 1.75342H36.9748L36.6655 3.19807H35.6434C35.5426 3.19807 35.4417 3.22434 35.3543 3.26374C35.2602 3.31627 35.1862 3.37537 35.1122 3.4476C35.045 3.53297 34.9845 3.6249 34.9509 3.7234C34.9105 3.83503 34.8904 3.95323 34.8904 4.06486V6.7309H33.1152V1.75998H34.6348L34.7424 2.19995V2.19338Z" fill="white"/>
<path d="M29.572 5.56185C29.7603 5.56185 29.9419 5.52902 30.1032 5.46335C30.2579 5.39768 30.3924 5.30575 30.5067 5.18755C30.6075 5.07592 30.6949 4.94459 30.7622 4.78042C30.816 4.62939 30.8496 4.45209 30.8496 4.26823C30.8496 4.08436 30.816 3.90706 30.7622 3.73633C30.6949 3.5853 30.6075 3.44084 30.5067 3.32264C30.3991 3.20444 30.2579 3.11251 30.1032 3.04684C29.9419 2.98774 29.7603 2.95491 29.572 2.95491C29.3703 2.95491 29.1955 2.98774 29.0409 3.05341C28.8795 3.11907 28.745 3.211 28.6374 3.3292C28.5164 3.4474 28.4357 3.59187 28.3819 3.7429C28.3214 3.91363 28.2945 4.0778 28.2945 4.26166C28.2945 4.44553 28.3214 4.62282 28.3819 4.77386C28.4357 4.93145 28.5164 5.06935 28.6374 5.18099C28.7383 5.29918 28.8795 5.39112 29.0409 5.45678C29.1955 5.52245 29.3636 5.55528 29.572 5.55528V5.56185ZM26.5396 4.26823C26.5396 3.84796 26.6135 3.46054 26.7883 3.11251C26.943 2.77761 27.1649 2.48211 27.4473 2.23915C27.723 2.00275 28.0323 1.82545 28.4088 1.69412C28.7652 1.57592 29.1619 1.51025 29.5788 1.51025C29.9957 1.51025 30.3924 1.57592 30.7622 1.69412C31.132 1.82545 31.4548 2.00275 31.7237 2.23915C31.9994 2.47554 32.2078 2.77104 32.3692 3.10594C32.5239 3.4474 32.6113 3.8414 32.6113 4.26166C32.6113 4.68192 32.5239 5.06279 32.3692 5.39768C32.2078 5.73915 31.9927 6.02808 31.7237 6.27104C31.448 6.50744 31.1253 6.68474 30.7622 6.81607C30.3856 6.93427 29.9957 6.99993 29.5788 6.99993C29.1619 6.99993 28.7652 6.93427 28.4088 6.81607C28.0323 6.68474 27.7162 6.50744 27.4473 6.27104C27.1649 6.03464 26.943 5.75228 26.7883 5.40425C26.6202 5.06935 26.5396 4.68849 26.5396 4.26823Z" fill="white"/>
<path d="M1.77512 2.15401C1.97012 2.02268 2.19201 1.91105 2.43407 1.82568C2.67613 1.76002 2.89802 1.71405 3.10646 1.71405C3.44938 1.71405 3.76541 1.76658 4.05454 1.85852C4.34367 1.95701 4.59245 2.10148 4.81434 2.27878C5.01606 2.46264 5.19089 2.67277 5.31192 2.91574C5.43295 3.16527 5.49346 3.4345 5.49346 3.73V6.86883H3.71834V4.26846C3.71834 4.06489 3.69145 3.8876 3.64438 3.73656C3.59059 3.60523 3.52335 3.48703 3.44266 3.3951C3.35525 3.30973 3.25439 3.25064 3.15353 3.21124C3.0325 3.1784 2.92492 3.1587 2.81061 3.1587C2.5551 3.1587 2.33321 3.2375 2.15166 3.38853C1.96339 3.54613 1.83564 3.7497 1.78185 4.0058V6.8754H0V0.170898H1.77512V2.15401Z" fill="white"/>
<path d="M9.38687 5.43062C9.74324 5.43062 10.0256 5.31898 10.2475 5.09572C10.4627 4.87902 10.5703 4.58353 10.5703 4.22893C10.5703 3.87433 10.4627 3.5657 10.2475 3.33587C10.0256 3.11917 9.74324 3.00754 9.38687 3.00754C9.0305 3.00754 8.74137 3.11917 8.52621 3.33587C8.30432 3.5657 8.20346 3.85463 8.20346 4.22893C8.20346 4.60323 8.30432 4.87902 8.52621 5.09572C8.74137 5.32555 9.0305 5.43062 9.38687 5.43062ZM11.0006 1.71392H12.5135V6.70454H10.9939L10.8594 6.29741C10.6174 6.49441 10.3484 6.63231 10.0593 6.73737C9.74996 6.8293 9.44739 6.8687 9.13136 6.8687C8.72792 6.86214 8.36483 6.7899 8.04208 6.65857C7.71261 6.52724 7.4302 6.33681 7.18814 6.10041C6.94608 5.86401 6.76453 5.58822 6.63005 5.26645C6.49557 4.94469 6.43506 4.60322 6.43506 4.2158C6.43506 3.82837 6.5023 3.4672 6.65023 3.13231C6.7847 2.81054 6.97297 2.52818 7.22176 2.29178C7.46382 2.05538 7.7395 1.87152 8.0757 1.73362C8.39845 1.60885 8.7481 1.53662 9.12464 1.53662C9.44739 1.53662 9.76341 1.57602 10.0525 1.66139C10.3417 1.74675 10.6106 1.87808 10.8527 2.05538L11.0073 1.70079L11.0006 1.71392Z" fill="white"/>
<path d="M15.1087 2.23898C15.2095 2.16018 15.3238 2.08794 15.4382 2.02228C15.5592 1.96318 15.6802 1.91065 15.8147 1.86468C15.9357 1.82528 16.0635 1.78588 16.198 1.75305C16.319 1.73335 16.44 1.72021 16.5543 1.72021C16.8972 1.72021 17.2133 1.77275 17.5024 1.86468C17.7915 1.96318 18.0403 2.10764 18.2622 2.28494C18.4639 2.46881 18.6388 2.67894 18.7598 2.9219C18.8808 3.17143 18.9413 3.44067 18.9413 3.73616V6.875H17.1662V4.27462C17.1662 4.07106 17.1393 3.89376 17.0922 3.74273C17.0385 3.6114 16.9712 3.4932 16.8905 3.40127C16.8031 3.3159 16.7023 3.2568 16.6014 3.2174C16.4804 3.18457 16.3728 3.16487 16.2585 3.16487C16.003 3.16487 15.7811 3.24367 15.5995 3.3947C15.4113 3.5523 15.2835 3.75586 15.2297 4.01196V6.88157H13.4546V1.88438H14.9742L15.1087 2.23898Z" fill="white"/>
<path d="M22.8413 5.43058C23.1977 5.43058 23.4801 5.31895 23.702 5.09568C23.9172 4.87899 24.0248 4.58349 24.0248 4.22889C24.0248 3.8743 23.9172 3.56567 23.702 3.33583C23.4801 3.11914 23.1977 3.0075 22.8413 3.0075C22.485 3.0075 22.1958 3.11914 21.9807 3.33583C21.7588 3.56567 21.6579 3.8546 21.6579 4.22889C21.6579 4.60319 21.7588 4.87899 21.9807 5.09568C22.1958 5.32552 22.485 5.43058 22.8413 5.43058ZM24.1929 0H25.9613V6.7045H24.4416L24.3072 6.29737C24.0651 6.49437 23.7961 6.63227 23.507 6.73734C23.1977 6.82927 22.8951 6.86867 22.5791 6.86867C22.1757 6.8621 21.8126 6.78987 21.4898 6.65854C21.1604 6.5272 20.878 6.33677 20.6359 6.10037C20.3938 5.86398 20.2123 5.58818 20.0778 5.26642C19.9433 4.94465 19.8828 4.60319 19.8828 4.21576C19.8828 3.82833 19.9501 3.46717 20.098 3.13227C20.2325 2.81051 20.4207 2.52814 20.6695 2.29174C20.9116 2.05535 21.1873 1.87148 21.5235 1.73358C21.8462 1.60882 22.1958 1.53659 22.5724 1.53659C22.8817 1.53659 23.1708 1.57598 23.4398 1.64822C23.702 1.72702 23.9575 1.84522 24.1996 1.98968V0H24.1929Z" fill="white"/>
</g>
<defs>
<clipPath id="clip0_5787_16909">
<rect width="54" height="7" fill="white"/>
</clipPath>
</defs>
</svg>
