<svg xmlns="http://www.w3.org/2000/svg">
    <symbol id="people-1" viewBox="0 0 24 24" fill="none" >
        <path d="M23 21V19C22.9993 18.1137 22.7044 17.2528 22.1614 16.5523C21.6184 15.8519 20.8581 15.3516 20 15.13"  stroke-width="2" stroke-linecap="round" stroke-linejoin="round"/>
        <path d="M17 21V19C17 17.9391 16.5786 16.9217 15.8284 16.1716C15.0783 15.4214 14.0609 15 13 15H5C3.93913 15 2.92172 15.4214 2.17157 16.1716C1.42143 16.9217 1 17.9391 1 19V21"  stroke-width="2" stroke-linecap="round" stroke-linejoin="round"/>
        <path d="M16 3.13C16.8604 3.35031 17.623 3.85071 18.1676 4.55232C18.7122 5.25392 19.0078 6.11683 19.0078 7.005C19.0078 7.89318 18.7122 8.75608 18.1676 9.45769C17.623 10.1593 16.8604 10.6597 16 10.88"  stroke-width="2" stroke-linecap="round" stroke-linejoin="round"/>
        <path d="M9 11C11.2091 11 13 9.20914 13 7C13 4.79086 11.2091 3 9 3C6.79086 3 5 4.79086 5 7C5 9.20914 6.79086 11 9 11Z" stroke-width="2" stroke-linecap="round" stroke-linejoin="round"/>
    </symbol>
    <symbol id="menu-1" viewBox="0 0 24 24" fill="none">
        <path d="M21 14H14V21H21V14Z"  stroke-width="2" stroke-linecap="round" stroke-linejoin="round"/>
        <path d="M10 14H3V21H10V14Z"  stroke-width="2" stroke-linecap="round" stroke-linejoin="round"/>
        <path d="M21 3H14V10H21V3Z"  stroke-width="2" stroke-linecap="round" stroke-linejoin="round"/>
        <path d="M10 3H3V10H10V3Z"  stroke-width="2" stroke-linecap="round" stroke-linejoin="round"/>
    </symbol>
    <symbol id="document-1" viewBox="0 0 24 24" fill="none">
        <path d="M14 2H6C5.46957 2 4.96086 2.21071 4.58579 2.58579C4.21071 2.96086 4 3.46957 4 4V20C4 20.5304 4.21071 21.0391 4.58579 21.4142C4.96086 21.7893 5.46957 22 6 22H18C18.5304 22 19.0391 21.7893 19.4142 21.4142C19.7893 21.0391 20 20.5304 20 20V8L14 2Z"  stroke-width="2" stroke-linecap="round" stroke-linejoin="round"/>
        <path d="M16 17H8"  stroke-width="2" stroke-linecap="round" stroke-linejoin="round"/>
        <path d="M16 13H8"  stroke-width="2" stroke-linecap="round" stroke-linejoin="round"/>
        <path d="M10 9H9H8"  stroke-width="2" stroke-linecap="round" stroke-linejoin="round"/>
        <path d="M14 2V8H20"  stroke-width="2" stroke-linecap="round" stroke-linejoin="round"/>
    </symbol>
    <symbol id="shop-1" viewBox="0 0 24 24">
        <path d="M4 6V4H20V6H4ZM4 20V14H3V12L4 7H20L21 12V14H20V20H18V14H14V20H4ZM6 18H12V14H6V18ZM5.05 12H18.95L18.35 9H5.65L5.05 12Z" fill="#000000"/>
    </symbol>
    <symbol id="shop-2" viewBox="0 0 24 24">
        <path d="M4 6V4H20V6H4ZM4 20V14H3V12L4 7H20L21 12V14H20V20H18V14H14V20H4ZM6 18H12V14H6V18ZM5.05 12H18.95L18.35 9H5.65L5.05 12Z"/>
    </symbol>
    <symbol id="device-1" viewBox="0 0 18 22" fill="none">
        <path d="M15 1H3C1.89543 1 1 1.89543 1 3V19C1 20.1046 1.89543 21 3 21H15C16.1046 21 17 20.1046 17 19V3C17 1.89543 16.1046 1 15 1Z" stroke-width="2" stroke-linecap="round" stroke-linejoin="round"/>
        <path d="M8 17H10" stroke-width="2" stroke-linecap="round" stroke-linejoin="round"/>
    </symbol>
    <symbol id="pizza-1" viewBox="0 0 24 24" fill="none">
        <path d="M21.21 15.89C20.5739 17.3945 19.5788 18.7202 18.3119 19.7513C17.045 20.7824 15.5448 21.4874 13.9425 21.8048C12.3401 22.1221 10.6845 22.0421 9.12018 21.5718C7.55591 21.1015 6.13066 20.2551 4.96906 19.1067C3.80745 17.9582 2.94485 16.5428 2.45667 14.984C1.96849 13.4251 1.8696 11.7705 2.16863 10.1646C2.46767 8.55878 3.15553 7.05063 4.17208 5.77203C5.18863 4.49343 6.50292 3.48332 8.00004 2.83"  stroke-width="2" stroke-linecap="round" stroke-linejoin="round"/>
        <path d="M22 12C22 10.6868 21.7413 9.38642 21.2388 8.17317C20.7362 6.95991 19.9997 5.85752 19.0711 4.92893C18.1425 4.00035 17.0401 3.26375 15.8268 2.7612C14.6136 2.25866 13.3132 2 12 2V12H22Z"  stroke-width="2" stroke-linecap="round" stroke-linejoin="round"/>
    </symbol>
    <symbol id="bell-1"  viewBox="0 0 24 24" fill="none">
        <path d="M18 8C18 6.4087 17.3679 4.88258 16.2426 3.75736C15.1174 2.63214 13.5913 2 12 2C10.4087 2 8.88258 2.63214 7.75736 3.75736C6.63214 4.88258 6 6.4087 6 8C6 15 3 17 3 17H21C21 17 18 15 18 8Z"  stroke-width="2" stroke-linecap="round" stroke-linejoin="round"/>
        <path d="M13.73 21C13.5542 21.3031 13.3019 21.5547 12.9982 21.7295C12.6946 21.9044 12.3504 21.9965 12 21.9965C11.6496 21.9965 11.3054 21.9044 11.0018 21.7295C10.6982 21.5547 10.4458 21.3031 10.27 21"  stroke-width="2" stroke-linecap="round" stroke-linejoin="round"/>
    </symbol>
    <symbol id="language-1" viewBox="0 -960 960 960" >
        <path d="m476-80 182-480h84L924-80h-84l-43-122H603L560-80h-84ZM160-200l-56-56 202-202q-35-35-63.5-80T190-640h84q20 39 40 68t48 58q33-33 68.5-92.5T484-720H40v-80h280v-80h80v80h280v80H564q-21 72-63 148t-83 116l96 98-30 82-122-125-202 201Zm468-72h144l-72-204-72 204Z"/>
    </symbol>
    <symbol id="advertising-1" viewBox="0 0 24 24" fill="none">
        <path d="M22.5 3.492L21.54 3.77325L4.359 9H1.5V15H4.35975L5.83575 15.4455L5.81325 15.5153V15.5393C5.33175 17.1233 6.2235 18.8843 7.87575 19.3823C7.88325 19.3845 7.89225 19.38 7.89825 19.3823C9.4905 19.866 11.253 18.9848 11.7428 17.3198L11.7653 17.2493L21.54 20.2268L22.5 20.5073V3.492ZM21 5.508V18.492L4.71 13.5225L4.61775 13.5H3V10.5H4.617L4.71075 10.4775L21 5.508ZM7.26525 15.8903L10.3358 16.8053L10.3133 16.875V16.8975C10.0553 17.775 9.12375 18.204 8.32125 17.9528C7.44375 17.6955 6.99225 16.7873 7.24275 15.984V15.9615L7.26525 15.8903Z" fill="black"/>
    </symbol>
    <symbol id="clock-1" viewBox="0 0 24 24" fill="none">
        <path fill="currentColor" d="M11.5 3a9.5 9.5 0 0 1 9.5 9.5a9.5 9.5 0 0 1-9.5 9.5A9.5 9.5 0 0 1 2 12.5A9.5 9.5 0 0 1 11.5 3m0 1A8.5 8.5 0 0 0 3 12.5a8.5 8.5 0 0 0 8.5 8.5a8.5 8.5 0 0 0 8.5-8.5A8.5 8.5 0 0 0 11.5 4M11 7h1v5.42l4.7 2.71l-.5.87l-5.2-3z"/>
    </symbol>

</svg>
