<svg width="52" height="52" viewBox="0 0 52 52" fill="none" xmlns="http://www.w3.org/2000/svg">
<path d="M19.5001 15.1663C19.5001 13.4424 20.1849 11.7891 21.4039 10.5701C22.6229 9.35116 24.2762 8.66634 26.0001 8.66634C27.724 8.66634 29.3773 9.35116 30.5963 10.5701C31.8153 11.7891 32.5001 13.4424 32.5001 15.1663V19.4997H36.8334V15.1663C36.8334 12.2932 35.692 9.53766 33.6604 7.50602C31.6288 5.47437 28.8733 4.33301 26.0001 4.33301C23.1269 4.33301 20.3714 5.47437 18.3398 7.50602C16.3081 9.53766 15.1667 12.2932 15.1667 15.1663V19.4997H19.5001V15.1663ZM26.0001 38.9997C25.4254 38.9997 24.8743 38.7714 24.468 38.3651C24.0617 37.9587 23.8334 37.4076 23.8334 36.833V30.333C23.8334 29.7584 24.0617 29.2073 24.468 28.8009C24.8743 28.3946 25.4254 28.1663 26.0001 28.1663C26.5747 28.1663 27.1258 28.3946 27.5321 28.8009C27.9385 29.2073 28.1667 29.7584 28.1667 30.333V36.833C28.1667 37.4076 27.9385 37.9587 27.5321 38.3651C27.1258 38.7714 26.5747 38.9997 26.0001 38.9997Z" fill="#FF6D17"/>
<path d="M36.8333 19.5H15.1666C13.4427 19.5 11.7894 20.1848 10.5704 21.4038C9.35145 22.6228 8.66663 24.2761 8.66663 26V41.1667C8.66663 42.8906 9.35145 44.5439 10.5704 45.7629C11.7894 46.9818 13.4427 47.6667 15.1666 47.6667H36.8333C38.5572 47.6667 40.2105 46.9818 41.4295 45.7629C42.6485 44.5439 43.3333 42.8906 43.3333 41.1667V26C43.3333 24.2761 42.6485 22.6228 41.4295 21.4038C40.2105 20.1848 38.5572 19.5 36.8333 19.5ZM28.1666 36.8333C28.1666 37.408 27.9384 37.9591 27.532 38.3654C27.1257 38.7717 26.5746 39 26 39C25.4253 39 24.8742 38.7717 24.4679 38.3654C24.0616 37.9591 23.8333 37.408 23.8333 36.8333V30.3333C23.8333 29.7587 24.0616 29.2076 24.4679 28.8013C24.8742 28.3949 25.4253 28.1667 26 28.1667C26.5746 28.1667 27.1257 28.3949 27.532 28.8013C27.9384 29.2076 28.1666 29.7587 28.1666 30.3333V36.8333Z" fill="#FFA16D"/>
</svg>
